<svg width="71" height="75" viewBox="0 0 71 75" fill="none" xmlns="http://www.w3.org/2000/svg">
<path d="M53.5273 33.6914C55.0591 33.6914 56.3008 32.3797 56.3008 30.7617C56.3008 29.1437 55.0591 27.832 53.5273 27.832C51.9956 27.832 50.7539 29.1437 50.7539 30.7617C50.7539 32.3797 51.9956 33.6914 53.5273 33.6914Z" fill="#E53935"/>
<path d="M59.9062 5.85938H56.3008V2.92969C56.3008 1.31162 55.0591 0 53.5273 0C51.9956 0 50.7539 1.31162 50.7539 2.92969V5.85938H38.1348V2.92969C38.1348 1.31162 36.8931 0 35.3613 0C33.8296 0 32.5879 1.31162 32.5879 2.92969V5.85938H20.1074V2.92969C20.1074 1.31162 18.8658 0 17.334 0C15.8022 0 14.5605 1.31162 14.5605 2.92969V5.85938H11.0938C4.97666 5.85938 0 11.1164 0 17.5781V63.2812C0 69.743 4.97666 75 11.0938 75H32.3105C33.8423 75 35.084 73.6884 35.084 72.0703C35.084 70.4522 33.8423 69.1406 32.3105 69.1406H11.0938C8.0352 69.1406 5.54688 66.5121 5.54688 63.2812V17.5781C5.54688 14.3473 8.0352 11.7188 11.0938 11.7188H14.5605V14.6484C14.5605 16.2665 15.8022 17.5781 17.334 17.5781C18.8658 17.5781 20.1074 16.2665 20.1074 14.6484V11.7188H32.5879V14.6484C32.5879 16.2665 33.8296 17.5781 35.3613 17.5781C36.8931 17.5781 38.1348 16.2665 38.1348 14.6484V11.7188H50.7539V14.6484C50.7539 16.2665 51.9956 17.5781 53.5273 17.5781C55.0591 17.5781 56.3008 16.2665 56.3008 14.6484V11.7188H59.9062C62.9648 11.7188 65.4531 14.3473 65.4531 17.5781V34.2773C65.4531 35.8954 66.6948 37.207 68.2266 37.207C69.7583 37.207 71 35.8954 71 34.2773V17.5781C71 11.1164 66.0233 5.85938 59.9062 5.85938Z" fill="#E53935"/>
<path d="M54.2207 39.5508C44.9685 39.5508 37.4414 47.502 37.4414 57.2754C37.4414 67.0488 44.9685 75 54.2207 75C63.4729 75 71 67.0488 71 57.2754C71 47.502 63.4729 39.5508 54.2207 39.5508ZM54.2207 69.1406C48.0272 69.1406 42.9883 63.818 42.9883 57.2754C42.9883 50.7328 48.0272 45.4102 54.2207 45.4102C60.4142 45.4102 65.4531 50.7328 65.4531 57.2754C65.4531 63.818 60.4142 69.1406 54.2207 69.1406Z" fill="#E53935"/>
<path d="M58.2422 54.3457H56.9941V51.2695C56.9941 49.6515 55.7525 48.3398 54.2207 48.3398C52.6889 48.3398 51.4473 49.6515 51.4473 51.2695V57.2754C51.4473 58.8935 52.6889 60.2051 54.2207 60.2051H58.2422C59.774 60.2051 61.0156 58.8935 61.0156 57.2754C61.0156 55.6573 59.774 54.3457 58.2422 54.3457Z" fill="#E53935"/>
<path d="M41.4629 33.6914C42.9946 33.6914 44.2363 32.3797 44.2363 30.7617C44.2363 29.1437 42.9946 27.832 41.4629 27.832C39.9312 27.832 38.6895 29.1437 38.6895 30.7617C38.6895 32.3797 39.9312 33.6914 41.4629 33.6914Z" fill="#E53935"/>
<path d="M29.3984 46.4355C30.9302 46.4355 32.1719 45.1239 32.1719 43.5059C32.1719 41.8878 30.9302 40.5762 29.3984 40.5762C27.8667 40.5762 26.625 41.8878 26.625 43.5059C26.625 45.1239 27.8667 46.4355 29.3984 46.4355Z" fill="#E53935"/>
<path d="M17.334 33.6914C18.8657 33.6914 20.1074 32.3797 20.1074 30.7617C20.1074 29.1437 18.8657 27.832 17.334 27.832C15.8023 27.832 14.5605 29.1437 14.5605 30.7617C14.5605 32.3797 15.8023 33.6914 17.334 33.6914Z" fill="#E53935"/>
<path d="M17.334 46.4355C18.8657 46.4355 20.1074 45.1239 20.1074 43.5059C20.1074 41.8878 18.8657 40.5762 17.334 40.5762C15.8023 40.5762 14.5605 41.8878 14.5605 43.5059C14.5605 45.1239 15.8023 46.4355 17.334 46.4355Z" fill="#E53935"/>
<path d="M17.334 59.1797C18.8657 59.1797 20.1074 57.868 20.1074 56.25C20.1074 54.632 18.8657 53.3203 17.334 53.3203C15.8023 53.3203 14.5605 54.632 14.5605 56.25C14.5605 57.868 15.8023 59.1797 17.334 59.1797Z" fill="#E53935"/>
<path d="M29.3984 59.1797C30.9302 59.1797 32.1719 57.868 32.1719 56.25C32.1719 54.632 30.9302 53.3203 29.3984 53.3203C27.8667 53.3203 26.625 54.632 26.625 56.25C26.625 57.868 27.8667 59.1797 29.3984 59.1797Z" fill="#E53935"/>
<path d="M29.3984 33.6914C30.9302 33.6914 32.1719 32.3797 32.1719 30.7617C32.1719 29.1437 30.9302 27.832 29.3984 27.832C27.8667 27.832 26.625 29.1437 26.625 30.7617C26.625 32.3797 27.8667 33.6914 29.3984 33.6914Z" fill="#E53935"/>
</svg>
