<svg width="75" height="75" viewBox="0 0 75 75" fill="none" xmlns="http://www.w3.org/2000/svg">
<g clip-path="url(#clip0)">
<path d="M38.4464 0.015632C23.2155 -0.49766 10.7075 11.6962 10.7075 26.8112C10.7075 43.9651 27.1694 56.4142 36.3962 74.3176C36.8647 75.2267 38.1732 75.2278 38.6433 74.3189C46.9903 58.2095 61.2564 47.4071 63.9003 31.8875C66.6377 15.8276 54.7284 0.564555 38.4464 0.015632ZM37.5184 40.855C29.7624 40.855 23.4747 34.5671 23.4747 26.8112C23.4747 19.0553 29.7625 12.7675 37.5184 12.7675C45.2745 12.7675 51.5623 19.0553 51.5623 26.8112C51.5623 34.5671 45.2745 40.855 37.5184 40.855Z" fill="#E53935"/>
</g>
<defs>
<clipPath id="clip0">
<rect width="75" height="75" fill="white"/>
</clipPath>
</defs>
</svg>
