<svg width="17" height="17" viewBox="0 0 17 17" fill="none" xmlns="http://www.w3.org/2000/svg">
<path d="M15.5059 2.02539H1.49414C0.671301 2.02539 0 2.69596 0 3.51953V13.4805C0 14.3012 0.668312 14.9746 1.49414 14.9746H15.5059C16.3266 14.9746 17 14.3063 17 13.4805V3.51953C17 2.69875 16.3317 2.02539 15.5059 2.02539ZM15.2995 3.02148L8.53168 9.78938L1.70528 3.02148H15.2995ZM0.996094 13.2742V3.72104L5.79325 8.47706L0.996094 13.2742ZM1.70043 13.9785L6.50061 9.17834L8.18258 10.8459C8.37728 11.0389 8.69148 11.0383 8.88539 10.8443L10.5254 9.20434L15.2996 13.9785H1.70043ZM16.0039 13.2742L11.2297 8.5L16.0039 3.72579V13.2742Z" fill="#979797"/>
</svg>
