<svg width="17" height="19" viewBox="0 0 17 19" fill="none" xmlns="http://www.w3.org/2000/svg">
<path d="M5.33355 13.6167H4.70021C4.52533 13.6167 4.38354 13.7584 4.38354 13.9333C4.38354 14.1082 4.52533 14.25 4.70021 14.25H5.33355C5.50842 14.25 5.65021 14.1082 5.65021 13.9333C5.65021 13.7584 5.50842 13.6167 5.33355 13.6167Z" fill="#979797"/>
<path d="M14.2001 13.6167H6.60011C6.42523 13.6167 6.28345 13.7584 6.28345 13.9333C6.28345 14.1082 6.42523 14.25 6.60011 14.25H14.2001C14.375 14.25 14.5168 14.1082 14.5168 13.9333C14.5168 13.7584 14.375 13.6167 14.2001 13.6167Z" fill="#979797"/>
<path d="M5.33355 11.7167H4.70021C4.52533 11.7167 4.38354 11.8585 4.38354 12.0333C4.38354 12.2082 4.52533 12.35 4.70021 12.35H5.33355C5.50842 12.35 5.65021 12.2082 5.65021 12.0333C5.65021 11.8585 5.50842 11.7167 5.33355 11.7167Z" fill="#979797"/>
<path d="M14.2001 11.7167H6.60011C6.42523 11.7167 6.28345 11.8585 6.28345 12.0333C6.28345 12.2082 6.42523 12.35 6.60011 12.35H14.2001C14.375 12.35 14.5168 12.2082 14.5168 12.0333C14.5168 11.8585 14.375 11.7167 14.2001 11.7167Z" fill="#979797"/>
<path d="M5.33355 9.81667H4.70021C4.52533 9.81667 4.38354 9.95845 4.38354 10.1333C4.38354 10.3082 4.52533 10.45 4.70021 10.45H5.33355C5.50842 10.45 5.65021 10.3082 5.65021 10.1333C5.65021 9.95845 5.50842 9.81667 5.33355 9.81667Z" fill="#979797"/>
<path d="M14.2001 9.81667H6.60011C6.42523 9.81667 6.28345 9.95845 6.28345 10.1333C6.28345 10.3082 6.42523 10.45 6.60011 10.45H14.2001C14.375 10.45 14.5168 10.3082 14.5168 10.1333C14.5168 9.95845 14.375 9.81667 14.2001 9.81667Z" fill="#979797"/>
<path d="M5.33355 7.91666H4.70021C4.52533 7.91666 4.38354 8.05845 4.38354 8.23333C4.38354 8.40821 4.52533 8.55 4.70021 8.55H5.33355C5.50842 8.55 5.65021 8.40821 5.65021 8.23333C5.65021 8.05845 5.50842 7.91666 5.33355 7.91666Z" fill="#979797"/>
<path d="M14.2001 7.91666H6.60011C6.42523 7.91666 6.28345 8.05845 6.28345 8.23333C6.28345 8.40821 6.42523 8.55 6.60011 8.55H14.2001C14.375 8.55 14.5168 8.40821 14.5168 8.23333C14.5168 8.05845 14.375 7.91666 14.2001 7.91666Z" fill="#979797"/>
<path d="M5.33355 6.01666H4.70021C4.52533 6.01666 4.38354 6.15845 4.38354 6.33333C4.38354 6.50821 4.52533 6.65 4.70021 6.65H5.33355C5.50842 6.65 5.65021 6.50821 5.65021 6.33333C5.65021 6.15845 5.50842 6.01666 5.33355 6.01666Z" fill="#979797"/>
<path d="M14.2001 6.01666H6.60011C6.42523 6.01666 6.28345 6.15845 6.28345 6.33333C6.28345 6.50821 6.42523 6.65 6.60011 6.65H14.2001C14.375 6.65 14.5168 6.50821 14.5168 6.33333C14.5168 6.15845 14.375 6.01666 14.2001 6.01666Z" fill="#979797"/>
<path d="M16.4127 4.73005C16.4111 4.7023 16.4057 4.67491 16.3966 4.64867C16.3931 4.63853 16.3905 4.62872 16.3861 4.6189C16.3707 4.58446 16.3493 4.55303 16.3228 4.52612L11.8894 0.0927833C11.8625 0.0663021 11.8311 0.0448479 11.7967 0.02945C11.7868 0.0250167 11.777 0.0224833 11.7672 0.019C11.7407 0.00989583 11.7131 0.00435417 11.6852 0.00253333C11.6798 0.00348333 11.6738 0 11.6668 0H2.80016C2.62528 0 2.4835 0.141787 2.4835 0.316667V1.26667H0.900163C0.725284 1.26667 0.583496 1.40845 0.583496 1.58333V18.6833C0.583496 18.8582 0.725284 19 0.900163 19H14.2002C14.375 19 14.5168 18.8582 14.5168 18.6833V17.1H16.1002C16.275 17.1 16.4168 16.9582 16.4168 16.7833V4.75C16.4168 4.74303 16.4133 4.73702 16.4127 4.73005ZM11.9835 1.0811L15.3357 4.43333H11.9835V1.0811ZM13.8835 18.3667H1.21683V1.9H2.4835V16.7833C2.4835 16.9582 2.62528 17.1 2.80016 17.1H13.8835V18.3667ZM15.7835 16.4667H3.11683V0.633333H11.3502V4.75C11.3502 4.92488 11.492 5.06667 11.6668 5.06667H15.7835V16.4667Z" fill="#979797"/>
<path d="M6.60021 2.85H4.70021C4.52533 2.85 4.38354 2.99179 4.38354 3.16667V5.06667C4.38354 5.24155 4.52533 5.38333 4.70021 5.38333H6.60021C6.77509 5.38333 6.91688 5.24155 6.91688 5.06667V3.16667C6.91688 2.99179 6.77509 2.85 6.60021 2.85ZM6.28355 4.75H5.01688V3.48333H6.28355V4.75Z" fill="#979797"/>
</svg>
