<svg width="21" height="21" viewBox="0 0 21 21" fill="none" xmlns="http://www.w3.org/2000/svg">
<path d="M12.2499 1.05H8.74989C8.55671 1.05 8.3999 1.2068 8.3999 1.39998C8.3999 1.59317 8.55671 1.74997 8.74989 1.74997H12.2499C12.4431 1.74997 12.5999 1.59317 12.5999 1.39998C12.5999 1.2068 12.4431 1.05 12.2499 1.05Z" fill="#979797"/>
<path d="M14.7 1.05H14.35C14.1568 1.05 14 1.2068 14 1.39998C14 1.59317 14.1568 1.74997 14.35 1.74997H14.7C14.8932 1.74997 15.05 1.59317 15.05 1.39998C15.05 1.2068 14.8932 1.05 14.7 1.05Z" fill="#979797"/>
<path d="M10.9345 17.85H10.0655C9.53314 17.85 9.09985 18.2833 9.09985 18.8156V18.9847C9.09985 19.517 9.53314 19.95 10.0652 19.95H10.9342C11.4665 19.95 11.8998 19.517 11.8998 18.9847V18.8156C11.8998 18.2833 11.4665 17.85 10.9345 17.85ZM11.1999 18.9847C11.1999 19.131 11.0809 19.25 10.9346 19.25H10.0655C9.91885 19.25 9.79983 19.131 9.79983 18.9847V18.8156C9.79983 18.669 9.91881 18.55 10.0655 18.55H10.9342C11.0809 18.55 11.1999 18.669 11.1999 18.8156V18.9847Z" fill="#979797"/>
<path d="M15.1849 0H5.81506C5.1175 0 4.5498 0.567697 4.5498 1.26525V19.7348C4.5498 20.4323 5.1175 21 5.81506 21H15.1845C15.8821 21 16.4498 20.4323 16.4498 19.7351V1.26525C16.4498 0.567697 15.8821 0 15.1849 0ZM15.7498 19.7348C15.7498 20.0463 15.4964 20.3 15.1849 20.3H5.81506C5.50321 20.3 5.24982 20.0462 5.24982 19.7351V1.26525C5.24982 0.953736 5.50321 0.700014 5.81506 0.700014H15.1845C15.4964 0.700014 15.7498 0.953777 15.7498 1.26525V19.7348H15.7498Z" fill="#979797"/>
<path d="M16.0998 2.1H4.89979C4.70661 2.1 4.5498 2.25681 4.5498 2.44999V17.15C4.5498 17.3432 4.70661 17.5 4.89979 17.5H16.0998C16.293 17.5 16.4498 17.3432 16.4498 17.15V2.44999C16.4498 2.25681 16.293 2.1 16.0998 2.1ZM15.7498 16.8H5.24978V2.80002H15.7498V16.8Z" fill="#979797"/>
</svg>
